<svg width="487" height="87" viewBox="0 0 487 87" fill="none" xmlns="http://www.w3.org/2000/svg">
<path d="M61.8 86.63L59.59 82.23C58.4 79.86 56.18 77.27 52.1 73.55C48.36 77.81 43.23 81.16 37.42 83.11C34 84.26 30.63 84.8 27.65 84.7L22.73 84.53L24.78 80.06C25.9 77.64 26.53 74.3 26.9 68.79C16.75 68.33 7.32 62.52 2.94 56.63L0 52.68L4.78 51.5C5.16 51.41 5.52 51.3 5.9 51.17C8.23 50.39 10.98 48.85 14.91 46.12C8.94 37.89 7.6 26.91 9.48 19.81L10.74 15.05L14.64 18.05C16.75 19.68 19.87 21.04 25.16 22.62C27.89 12.84 35.64 4.94 42.36 1.98L46.87 0L46.95 4.92C46.99 7.58 47.87 10.87 49.93 15.99C50.65 15.68 51.38 15.41 52.13 15.16C61.36 12.07 71.39 13.72 76.79 16.55L81.15 18.83L77.35 21.96C75.3 23.65 73.27 26.39 70.55 31.2C79.49 36.02 85.47 45.34 86.86 52.55L86.95 53.03L87.79 57.39L82.97 56.37C80.36 55.82 76.96 55.94 71.51 56.81C73.32 66.81 69.76 77.29 64.98 82.87L61.78 86.61L61.8 86.63ZM33.5 68.32C33.27 72.23 32.91 75.24 32.38 77.71C33.36 77.5 34.36 77.23 35.35 76.9C40 75.34 44.22 72.6 47.17 69.24C46.98 69.08 46.78 68.91 46.58 68.74C44.5 66.99 43.09 64.99 42.42 62.95C41.07 65.01 38.77 66.68 35.8 67.68C35.41 67.81 35.01 67.92 34.61 68.03L33.49 68.32H33.5ZM55.85 68.11C58.75 70.72 60.88 72.87 62.49 74.84C64.72 70.38 66.18 64.06 65.09 57.99C64.84 58.04 64.59 58.09 64.34 58.14C61.68 58.68 59.23 58.54 57.22 57.78C58.1 60.42 57.8 63.64 56.32 67.03L55.85 68.11ZM50.05 63.05L50.67 63.58C51.47 61.32 51.18 59.82 50.68 59.22C50.35 58.82 50.02 58.87 49.81 58.94C49.28 59.14 48.67 59.48 48.56 60.1C48.45 60.7 48.81 61.79 50.05 63.05ZM11.36 55.97C15.21 59.14 21.05 61.96 27.2 62.25C27.2 62 27.21 61.74 27.22 61.48C27.29 58.76 27.97 56.41 29.14 54.63C26.36 54.9 23.3 53.89 20.33 51.7L19.38 51C16.17 53.26 13.6 54.86 11.35 55.98L11.36 55.97ZM35.74 57.5C35.62 57.5 35.5 57.52 35.4 57.55C34.65 57.8 33.88 59.1 33.78 61.46C35.79 60.77 37.13 59.67 37.25 58.63C37.29 58.3 37.16 58.05 36.88 57.88C36.48 57.64 36.08 57.51 35.74 57.51V57.5ZM35.74 50.96C37.26 50.96 38.81 51.41 40.25 52.28C41.7 53.16 42.76 54.46 43.33 55.97C44.29 54.58 45.72 53.49 47.51 52.83C49.11 52.24 50.78 52.22 52.31 52.72C51.82 51.11 51.86 49.31 52.46 47.49C52.99 45.89 54.02 44.56 55.37 43.67C53.81 43.05 52.41 41.9 51.37 40.3C50.45 38.88 50.05 37.25 50.2 35.63C49.76 35.88 49.28 36.1 48.78 36.26C47.63 36.65 46.38 36.78 45.06 36.65C43.32 36.48 41.79 35.76 40.64 34.63C40.39 36.36 39.59 38.02 38.32 39.27C37.46 40.11 36.47 40.73 35.36 41.1C34.89 41.26 34.42 41.36 33.94 41.43C35.13 42.69 35.89 44.35 36.13 46.27C36.35 47.97 35.98 49.6 35.15 50.97C35.34 50.96 35.52 50.95 35.71 50.95L35.74 50.96ZM59.45 49.02C59.33 49.02 59.22 49.04 59.12 49.07C58.97 49.12 58.77 49.22 58.66 49.55C58.49 50.06 58.38 50.75 58.79 51.21C59.25 51.73 60.59 52.18 62.85 51.77C61.57 49.7 60.24 49.01 59.45 49.01V49.02ZM62.41 43.01C64.75 43.87 67.15 45.84 69.07 49.48L69.6 50.49L70.37 50.35V50.4C73.87 49.84 76.65 49.56 79.01 49.53C76.92 45 72.89 39.93 67.46 36.99C67.34 37.21 67.23 37.44 67.11 37.67C65.86 40.09 64.26 41.91 62.41 43.01ZM24.93 46.93C26.51 47.94 28.03 48.35 29 48.02C29.49 47.85 29.72 47.55 29.66 47.12C29.58 46.47 29.33 45.98 28.98 45.76C28.41 45.41 27.53 45.62 27.06 45.78C26.39 46 25.68 46.39 24.93 46.93ZM15.26 25.97C15.18 30.95 16.61 37.28 20.23 42.28C20.43 42.13 20.64 41.97 20.84 41.82C22.2 40.79 23.6 40.03 24.99 39.56C25.81 39.29 26.62 39.12 27.42 39.05C26.01 37.61 24.35 34.94 24.21 30.32L24.17 29.16C20.41 28.06 17.55 27.04 15.26 25.98V25.97ZM60.01 34.76C59.29 34.76 58.65 34.85 58.12 35.03C57.4 35.27 56.91 35.65 56.76 36.08C56.71 36.22 56.67 36.44 56.86 36.73C57.64 37.92 58.35 37.68 58.62 37.59C59.48 37.3 60.44 36.28 61.21 34.84C60.79 34.79 60.39 34.76 60.01 34.76ZM30.8 30.94C30.98 32.71 31.53 34.06 32.31 34.66C32.5 34.81 32.88 35.03 33.3 34.89C33.46 34.84 33.6 34.75 33.74 34.61C33.99 34.36 34.32 33.75 34.15 33.14C33.91 32.26 32.66 31.43 30.79 30.93L30.8 30.94ZM46.94 25.56C45.2 27.27 44.81 28.77 45.02 29.53C45.15 30.03 45.47 30.12 45.71 30.14C46.1 30.18 46.45 30.14 46.72 30.05C47.07 29.93 47.3 29.73 47.44 29.4C47.81 28.56 47.62 27.14 46.94 25.56ZM52.52 22C52.62 22.23 52.73 22.47 52.84 22.7C54.14 25.59 54.34 27.93 54.08 29.72C54.68 29.35 55.34 29.05 56.05 28.81C58.15 28.11 60.59 28.02 63.29 28.53L64.44 28.75C66.35 25.33 67.97 22.78 69.51 20.79C65.4 19.79 59.72 19.5 54.22 21.34C53.64 21.53 53.07 21.75 52.52 21.99V22ZM31.5 24.36C31.75 24.42 31.99 24.49 32.24 24.55C35.29 25.33 37.24 26.62 38.49 27.94C38.85 25.19 40.51 22.42 43.32 20.01L44.21 19.24C42.72 15.61 41.74 12.75 41.15 10.3C37.2 13.35 33.15 18.41 31.5 24.35V24.36Z" fill="url(#paint0_radial_916_2635)"/>
<path d="M108.798 41.179C108.425 41.179 108.163 41.0483 108.014 40.787C107.865 40.5257 107.79 40.2457 107.79 39.947C107.827 39.3123 107.977 38.9577 108.238 38.883C108.499 38.8083 108.817 38.771 109.19 38.771C110.385 38.771 111.225 38.5657 111.71 38.155C112.195 37.707 112.494 37.1657 112.606 36.531C112.755 35.859 112.83 35.1683 112.83 34.459V12.227C112.83 11.5177 112.755 10.8457 112.606 10.211C112.494 9.53899 112.195 8.99765 111.71 8.58699C111.225 8.13899 110.385 7.91499 109.19 7.91499C108.817 7.91499 108.499 7.87765 108.238 7.80299C107.977 7.72832 107.827 7.37365 107.79 6.73899C107.79 6.44032 107.865 6.16032 108.014 5.89899C108.163 5.63765 108.425 5.50699 108.798 5.50699C109.993 5.54432 111.113 5.58165 112.158 5.61899C113.203 5.65632 114.286 5.67499 115.406 5.67499H137.19C139.43 5.67499 141.745 5.61899 144.134 5.50699C144.47 5.50699 144.713 5.63765 144.862 5.89899C145.049 6.16032 145.142 6.44032 145.142 6.73899C145.105 7.37365 144.955 7.72832 144.694 7.80299C144.433 7.87765 144.097 7.91499 143.686 7.91499C142.529 7.91499 141.689 8.13899 141.166 8.58699C140.681 8.99765 140.382 9.53899 140.27 10.211C140.158 10.8457 140.083 11.5177 140.046 12.227V34.459C140.083 35.1683 140.158 35.859 140.27 36.531C140.382 37.1657 140.681 37.707 141.166 38.155C141.689 38.5657 142.529 38.771 143.686 38.771C144.097 38.771 144.433 38.8083 144.694 38.883C144.955 38.9577 145.105 39.3123 145.142 39.947C145.142 40.2457 145.049 40.5257 144.862 40.787C144.713 41.0483 144.47 41.179 144.134 41.179C141.745 41.067 139.411 41.011 137.134 41.011C136.014 41.011 134.913 41.011 133.83 41.011C132.785 41.0483 131.665 41.1043 130.47 41.179C130.097 41.179 129.835 41.0483 129.686 40.787C129.537 40.5257 129.462 40.2457 129.462 39.947C129.499 39.3123 129.649 38.9577 129.91 38.883C130.171 38.8083 130.489 38.771 130.862 38.771C132.057 38.771 132.897 38.5657 133.382 38.155C133.867 37.707 134.166 37.1657 134.278 36.531C134.427 35.859 134.521 35.1683 134.558 34.459V7.91499H122.014C120.745 7.84032 119.849 8.00832 119.326 8.41899C118.841 8.82965 118.561 9.37099 118.486 10.043C118.411 10.715 118.374 11.443 118.374 12.227V34.459C118.411 35.1683 118.486 35.859 118.598 36.531C118.71 37.1657 119.009 37.707 119.494 38.155C120.017 38.5657 120.857 38.771 122.014 38.771C122.425 38.771 122.742 38.8083 122.966 38.883C123.227 38.9577 123.377 39.3123 123.414 39.947C123.414 40.2457 123.339 40.5257 123.19 40.787C123.041 41.0483 122.779 41.179 122.406 41.179C120.017 41.067 117.702 41.011 115.462 41.011C114.342 41.011 113.241 41.011 112.158 41.011C111.113 41.0483 109.993 41.1043 108.798 41.179Z" fill="#333333"/>
<path d="M149.884 52.659C149.622 52.659 149.398 52.5283 149.212 52.267C149.062 52.043 148.988 51.8003 148.988 51.539C149.025 50.979 149.156 50.6617 149.38 50.587C149.641 50.5497 149.94 50.531 150.276 50.531C151.284 50.531 151.974 50.3443 152.348 49.971C152.758 49.635 153.001 49.1683 153.076 48.571C153.15 47.9737 153.188 47.3577 153.188 46.723V22.419C153.188 21.747 153.15 21.131 153.076 20.571C153.038 19.9737 152.833 19.507 152.46 19.171C152.086 18.7977 151.377 18.611 150.332 18.611C149.996 18.611 149.678 18.5737 149.38 18.499C149.118 18.387 148.988 18.051 148.988 17.491C148.988 16.931 149.286 16.595 149.884 16.483C151.601 16.2217 152.908 15.9603 153.804 15.699C154.737 15.4377 155.428 15.2137 155.876 15.027C156.361 14.8403 156.79 14.7283 157.164 14.691C157.462 14.6537 157.705 14.7097 157.892 14.859C158.116 15.0083 158.228 15.307 158.228 15.755V18.443H158.396C159.441 17.4723 160.692 16.651 162.148 15.979C163.604 15.307 165.004 14.971 166.348 14.971C168.625 14.971 170.641 15.531 172.396 16.651C174.15 17.771 175.532 19.339 176.54 21.355C177.548 23.3337 178.052 25.6483 178.052 28.299C178.052 30.987 177.436 33.339 176.204 35.355C174.972 37.371 173.385 38.939 171.444 40.059C169.502 41.1417 167.43 41.683 165.228 41.683C163.548 41.683 162.185 41.4963 161.14 41.123C160.132 40.787 159.254 40.395 158.508 39.947H158.284V46.723C158.284 47.3577 158.321 47.9737 158.396 48.571C158.47 49.1683 158.713 49.635 159.124 49.971C159.534 50.3443 160.225 50.531 161.196 50.531C161.532 50.531 161.812 50.5497 162.036 50.587C162.297 50.6617 162.446 50.979 162.484 51.539C162.484 51.8003 162.409 52.043 162.26 52.267C162.11 52.5283 161.886 52.659 161.588 52.659C160.505 52.5843 159.497 52.5283 158.564 52.491C157.668 52.491 156.716 52.491 155.708 52.491C154.7 52.491 153.748 52.491 152.852 52.491C151.956 52.5283 150.966 52.5843 149.884 52.659ZM164.78 39.779C166.236 39.779 167.449 39.4243 168.42 38.715C169.39 37.9683 170.156 37.035 170.716 35.915C171.313 34.7577 171.724 33.5257 171.948 32.219C172.209 30.875 172.34 29.6243 172.34 28.467C172.34 26.7123 172.06 25.0323 171.5 23.427C170.977 21.7843 170.118 20.4403 168.924 19.395C167.766 18.3123 166.236 17.771 164.332 17.771C162.913 17.771 161.737 18.0697 160.804 18.667C159.87 19.227 159.03 19.899 158.284 20.683V35.691C158.694 36.6617 159.441 37.595 160.524 38.491C161.644 39.3497 163.062 39.779 164.78 39.779Z" fill="#333333"/>
<path d="M195.747 41.683C193.133 41.683 190.837 41.067 188.859 39.835C186.917 38.603 185.405 36.9977 184.323 35.019C183.24 33.0403 182.699 30.931 182.699 28.691C182.699 26.4883 183.091 24.5283 183.875 22.811C184.659 21.0937 185.685 19.6563 186.955 18.499C188.261 17.3417 189.68 16.4643 191.211 15.867C192.741 15.2697 194.253 14.971 195.747 14.971C198.36 14.971 200.637 15.587 202.579 16.819C204.557 18.051 206.088 19.6563 207.171 21.635C208.253 23.6137 208.795 25.723 208.795 27.963C208.795 30.1657 208.384 32.1257 207.563 33.843C206.779 35.5603 205.733 36.9977 204.427 38.155C203.157 39.3123 201.757 40.1897 200.227 40.787C198.696 41.3843 197.203 41.683 195.747 41.683ZM195.747 39.611C197.576 39.611 199.013 39.0697 200.059 37.987C201.141 36.9043 201.907 35.4857 202.355 33.731C202.84 31.939 203.083 30.0163 203.083 27.963C203.083 25.9843 202.84 24.1737 202.355 22.531C201.869 20.8883 201.085 19.563 200.003 18.555C198.92 17.547 197.501 17.043 195.747 17.043C193.917 17.043 192.461 17.5843 191.379 18.667C190.296 19.7123 189.531 21.1123 189.083 22.867C188.635 24.5843 188.411 26.4883 188.411 28.579C188.411 30.5203 188.635 32.331 189.083 34.011C189.568 35.691 190.352 37.0537 191.435 38.099C192.517 39.107 193.955 39.611 195.747 39.611Z" fill="#333333"/>
<path d="M213.61 41.179C213.349 41.179 213.125 41.067 212.938 40.843C212.789 40.5817 212.714 40.3203 212.714 40.059C212.752 39.499 212.882 39.2003 213.106 39.163C213.368 39.0883 213.666 39.051 214.002 39.051C215.048 39.051 215.757 38.883 216.13 38.547C216.541 38.1737 216.765 37.6883 216.802 37.091C216.877 36.4937 216.914 35.8777 216.914 35.243V21.411C216.914 20.739 216.877 20.123 216.802 19.563C216.765 18.9657 216.541 18.499 216.13 18.163C215.757 17.7897 215.048 17.603 214.002 17.603C213.666 17.603 213.368 17.5843 213.106 17.547C212.882 17.4723 212.752 17.155 212.714 16.595C212.714 16.2963 212.789 16.035 212.938 15.811C213.125 15.587 213.349 15.475 213.61 15.475C214.693 15.5123 215.682 15.5497 216.578 15.587C217.474 15.6243 218.426 15.643 219.434 15.643H227.61C229.402 15.643 230.989 15.811 232.37 16.147C233.789 16.4457 234.89 17.0057 235.674 17.827C236.496 18.6483 236.906 19.843 236.906 21.411C236.906 22.6057 236.57 23.6137 235.898 24.435C235.264 25.2563 234.48 25.9097 233.546 26.395C232.65 26.8803 231.81 27.2163 231.026 27.403V27.515C232.557 27.5897 233.864 27.9817 234.946 28.691C236.066 29.363 236.925 30.203 237.522 31.211C238.12 32.219 238.418 33.283 238.418 34.403C238.418 35.971 237.858 37.259 236.738 38.267C235.618 39.2377 234.2 39.947 232.482 40.395C230.802 40.843 229.085 41.067 227.33 41.067C226.77 41.067 225.949 41.0483 224.866 41.011C223.784 41.011 221.973 41.011 219.434 41.011C218.426 41.011 217.474 41.011 216.578 41.011C215.682 41.0483 214.693 41.1043 213.61 41.179ZM222.066 26.675H223.858C224.418 26.675 225.109 26.6563 225.93 26.619C226.752 26.5443 227.554 26.3763 228.338 26.115C229.16 25.8163 229.832 25.331 230.354 24.659C230.914 23.987 231.194 23.0537 231.194 21.859C231.194 20.4777 230.765 19.3763 229.906 18.555C229.085 17.6963 227.778 17.267 225.986 17.267H222.066V26.675ZM226.154 39.387C228.133 39.387 229.701 38.9017 230.858 37.931C232.016 36.923 232.594 35.6723 232.594 34.179C232.594 33.171 232.296 32.219 231.698 31.323C231.138 30.427 230.224 29.7177 228.954 29.195C227.685 28.635 225.986 28.355 223.858 28.355H222.066V36.195C222.066 37.5017 222.458 38.3603 223.242 38.771C224.026 39.1817 224.997 39.387 226.154 39.387Z" fill="#333333"/>
<path d="M243.69 41.179C243.391 41.179 243.167 41.067 243.018 40.843C242.868 40.5817 242.794 40.3203 242.794 40.059C242.831 39.499 242.962 39.2003 243.186 39.163C243.41 39.0883 243.708 39.051 244.082 39.051C245.127 39.051 245.836 38.883 246.21 38.547C246.62 38.1737 246.844 37.6883 246.882 37.091C246.919 36.4937 246.938 35.8777 246.938 35.243V21.411C246.938 20.739 246.919 20.123 246.882 19.563C246.844 18.9657 246.62 18.499 246.21 18.163C245.836 17.7897 245.127 17.603 244.082 17.603C243.708 17.603 243.41 17.5843 243.186 17.547C242.962 17.4723 242.831 17.155 242.794 16.595C242.794 16.2963 242.868 16.035 243.018 15.811C243.167 15.587 243.391 15.475 243.69 15.475C244.772 15.5123 245.762 15.5497 246.658 15.587C247.554 15.6243 248.506 15.643 249.514 15.643C250.484 15.643 251.362 15.6243 252.146 15.587C252.93 15.5497 253.844 15.5123 254.89 15.475C255.188 15.475 255.412 15.587 255.562 15.811C255.711 16.035 255.786 16.2963 255.786 16.595C255.748 17.155 255.599 17.4723 255.338 17.547C255.114 17.5843 254.852 17.603 254.554 17.603C253.658 17.5657 253.042 17.6963 252.706 17.995C252.37 18.2937 252.183 18.7417 252.146 19.339C252.146 19.899 252.127 20.5897 252.09 21.411V34.571L262.73 20.067C264.223 18.2003 265.492 17.0057 266.538 16.483C267.62 15.9603 268.572 15.6617 269.394 15.587L271.858 15.475C272.156 15.475 272.38 15.587 272.53 15.811C272.679 16.035 272.754 16.2963 272.754 16.595C272.716 17.155 272.567 17.4723 272.306 17.547C272.082 17.5843 271.802 17.603 271.466 17.603C270.42 17.603 269.692 17.7897 269.282 18.163C268.908 18.499 268.684 18.9657 268.61 19.563C268.572 20.123 268.554 20.739 268.554 21.411V35.243C268.554 35.8777 268.572 36.4937 268.61 37.091C268.684 37.6883 268.908 38.1737 269.282 38.547C269.692 38.883 270.42 39.051 271.466 39.051C271.802 39.051 272.082 39.0883 272.306 39.163C272.567 39.2003 272.716 39.499 272.754 40.059C272.754 40.3203 272.679 40.5817 272.53 40.843C272.38 41.067 272.156 41.179 271.858 41.179C270.775 41.1043 269.786 41.0483 268.89 41.011C267.994 41.011 267.042 41.011 266.034 41.011C265.063 41.011 264.186 41.011 263.402 41.011C262.618 41.0483 261.684 41.1043 260.602 41.179C260.34 41.179 260.135 41.067 259.986 40.843C259.836 40.5817 259.762 40.3203 259.762 40.059C259.799 39.499 259.93 39.2003 260.154 39.163C260.378 39.0883 260.658 39.051 260.994 39.051C261.89 39.0883 262.506 38.9577 262.842 38.659C263.178 38.3603 263.364 37.931 263.402 37.371C263.439 36.7737 263.458 36.0643 263.458 35.243V22.811L252.762 37.203C251.679 38.5843 250.559 39.555 249.402 40.115C248.282 40.675 247.292 40.9923 246.434 41.067C245.986 41.1043 245.538 41.123 245.09 41.123C244.642 41.1603 244.175 41.179 243.69 41.179Z" fill="#333333"/>
<path d="M277.705 41.179C277.407 41.179 277.183 41.067 277.033 40.843C276.884 40.5817 276.809 40.3203 276.809 40.059C276.847 39.499 276.977 39.2003 277.201 39.163C277.425 39.0883 277.724 39.051 278.097 39.051C279.143 39.051 279.852 38.883 280.225 38.547C280.636 38.1737 280.86 37.6883 280.897 37.091C280.935 36.4937 280.953 35.8777 280.953 35.243V21.411C280.953 20.739 280.935 20.123 280.897 19.563C280.86 18.9657 280.636 18.499 280.225 18.163C279.852 17.7897 279.143 17.603 278.097 17.603C277.724 17.603 277.425 17.5843 277.201 17.547C276.977 17.4723 276.847 17.155 276.809 16.595C276.809 16.2963 276.884 16.035 277.033 15.811C277.183 15.587 277.407 15.475 277.705 15.475C278.788 15.5123 279.777 15.5497 280.673 15.587C281.569 15.6243 282.521 15.643 283.529 15.643C284.5 15.643 285.377 15.6243 286.161 15.587C286.945 15.5497 287.86 15.5123 288.905 15.475C289.204 15.475 289.428 15.587 289.577 15.811C289.727 16.035 289.801 16.2963 289.801 16.595C289.764 17.155 289.615 17.4723 289.353 17.547C289.129 17.5843 288.868 17.603 288.569 17.603C287.673 17.5657 287.057 17.6963 286.721 17.995C286.385 18.2937 286.199 18.7417 286.161 19.339C286.161 19.899 286.143 20.5897 286.105 21.411V26.507H298.033V21.411C298.033 20.5897 298.015 19.899 297.977 19.339C297.94 18.7417 297.753 18.2937 297.417 17.995C297.081 17.6963 296.465 17.5657 295.569 17.603C295.233 17.603 294.953 17.5843 294.729 17.547C294.505 17.4723 294.375 17.155 294.337 16.595C294.337 16.2963 294.412 16.035 294.561 15.811C294.711 15.587 294.916 15.475 295.177 15.475C296.26 15.5123 297.193 15.5497 297.977 15.587C298.761 15.6243 299.639 15.643 300.609 15.643C301.617 15.643 302.569 15.6243 303.465 15.587C304.361 15.5497 305.351 15.5123 306.433 15.475C306.732 15.475 306.956 15.587 307.105 15.811C307.255 16.035 307.329 16.2963 307.329 16.595C307.292 17.155 307.143 17.4723 306.881 17.547C306.657 17.5843 306.377 17.603 306.041 17.603C304.996 17.603 304.268 17.7897 303.857 18.163C303.484 18.499 303.26 18.9657 303.185 19.563C303.148 20.123 303.129 20.739 303.129 21.411V35.243C303.129 35.8777 303.148 36.4937 303.185 37.091C303.26 37.6883 303.484 38.1737 303.857 38.547C304.268 38.883 304.996 39.051 306.041 39.051C306.377 39.051 306.657 39.0883 306.881 39.163C307.143 39.2003 307.292 39.499 307.329 40.059C307.329 40.3203 307.255 40.5817 307.105 40.843C306.956 41.067 306.732 41.179 306.433 41.179C305.351 41.1043 304.361 41.0483 303.465 41.011C302.569 41.011 301.617 41.011 300.609 41.011C299.639 41.011 298.761 41.011 297.977 41.011C297.193 41.0483 296.26 41.1043 295.177 41.179C294.916 41.179 294.711 41.067 294.561 40.843C294.412 40.5817 294.337 40.3203 294.337 40.059C294.375 39.499 294.505 39.2003 294.729 39.163C294.953 39.0883 295.233 39.051 295.569 39.051C296.465 39.0883 297.081 38.9577 297.417 38.659C297.753 38.3603 297.94 37.931 297.977 37.371C298.015 36.7737 298.033 36.0643 298.033 35.243V28.691H286.105V35.243C286.143 36.0643 286.161 36.7737 286.161 37.371C286.199 37.931 286.385 38.3603 286.721 38.659C287.057 38.9577 287.673 39.0883 288.569 39.051C288.868 39.051 289.129 39.0883 289.353 39.163C289.615 39.2003 289.764 39.499 289.801 40.059C289.801 40.3203 289.727 40.5817 289.577 40.843C289.428 41.067 289.204 41.179 288.905 41.179C287.86 41.1043 286.945 41.0483 286.161 41.011C285.377 41.011 284.5 41.011 283.529 41.011C282.521 41.011 281.569 41.011 280.673 41.011C279.777 41.0483 278.788 41.1043 277.705 41.179Z" fill="#333333"/>
<path d="M322.298 53.555C321.738 53.555 321.328 53.2377 321.066 52.603C320.842 51.9683 320.73 51.3897 320.73 50.867C320.73 49.1497 321.272 47.787 322.354 46.779C323.437 45.8083 324.893 45.323 326.722 45.323C328.104 45.323 329.392 45.5843 330.586 46.107C331.818 46.667 333.05 47.227 334.282 47.787C335.514 48.347 336.821 48.6457 338.202 48.683C339.322 48.683 340.181 48.2723 340.778 47.451C341.376 46.6297 341.674 45.7337 341.674 44.763C341.674 43.7923 341.376 42.915 340.778 42.131C340.181 41.3843 339.248 41.011 337.978 41.011H317.762C316.754 41.011 315.802 41.011 314.906 41.011C314.01 41.0483 313.021 41.1043 311.938 41.179C311.677 41.179 311.453 41.067 311.266 40.843C311.117 40.5817 311.042 40.3203 311.042 40.059C311.08 39.499 311.21 39.2003 311.434 39.163C311.696 39.0883 311.994 39.051 312.33 39.051C313.376 39.051 314.085 38.883 314.458 38.547C314.869 38.1737 315.093 37.6883 315.13 37.091C315.205 36.4937 315.242 35.8777 315.242 35.243V21.411C315.242 20.739 315.186 20.123 315.074 19.563C315 18.9657 314.757 18.499 314.346 18.163C313.936 17.7897 313.264 17.603 312.33 17.603C311.994 17.603 311.696 17.5843 311.434 17.547C311.21 17.4723 311.08 17.155 311.042 16.595C311.042 16.2963 311.117 16.035 311.266 15.811C311.453 15.587 311.677 15.475 311.938 15.475C313.021 15.5123 314.01 15.5497 314.906 15.587C315.802 15.6243 316.754 15.643 317.762 15.643C318.733 15.643 319.554 15.6243 320.226 15.587C320.936 15.5497 321.813 15.5123 322.858 15.475C323.157 15.475 323.381 15.587 323.53 15.811C323.68 16.035 323.754 16.2963 323.754 16.595C323.717 17.155 323.586 17.4723 323.362 17.547C323.138 17.5843 322.858 17.603 322.522 17.603C321.365 17.5283 320.712 17.8457 320.562 18.555C320.45 19.227 320.376 20.179 320.338 21.411V35.187C320.376 36.419 320.506 37.371 320.73 38.043C320.954 38.715 321.645 39.0323 322.802 38.995H332.266V21.411C332.266 20.739 332.248 20.123 332.21 19.563C332.173 18.9657 331.968 18.499 331.594 18.163C331.258 17.7897 330.624 17.603 329.69 17.603C329.354 17.603 329.056 17.5843 328.794 17.547C328.57 17.4723 328.44 17.155 328.402 16.595C328.402 16.2963 328.477 16.035 328.626 15.811C328.776 15.587 329 15.475 329.298 15.475C330.381 15.5123 331.314 15.5497 332.098 15.587C332.92 15.6243 333.834 15.643 334.842 15.643C335.813 15.643 336.69 15.6243 337.474 15.587C338.258 15.5497 339.173 15.5123 340.218 15.475C340.517 15.475 340.741 15.587 340.89 15.811C341.04 16.035 341.114 16.2963 341.114 16.595C341.077 17.155 340.928 17.4723 340.666 17.547C340.442 17.5843 340.181 17.603 339.882 17.603C338.725 17.5283 338.034 17.8457 337.81 18.555C337.586 19.227 337.456 20.179 337.418 21.411V35.243C337.456 36.4377 337.698 37.315 338.146 37.875C338.594 38.435 339.136 38.8643 339.77 39.163C340.442 39.4617 341.096 39.779 341.73 40.115C342.402 40.4137 342.962 40.899 343.41 41.571C343.896 42.243 344.157 43.2697 344.194 44.651C344.232 45.995 343.914 47.3017 343.242 48.571C342.608 49.8403 341.637 50.8857 340.33 51.707C339.061 52.5283 337.474 52.939 335.57 52.939C334.189 52.8643 332.901 52.547 331.706 51.987C330.512 51.4643 329.373 50.9043 328.29 50.307C327.208 49.747 326.125 49.411 325.042 49.299C324.184 49.2243 323.512 49.355 323.026 49.691C322.578 50.0643 322.373 50.5683 322.41 51.203C322.41 51.5763 322.541 51.875 322.802 52.099C323.101 52.323 323.25 52.5283 323.25 52.715C323.25 53.275 322.933 53.555 322.298 53.555Z" fill="#333333"/>
<path d="M347.815 41.179C347.516 41.179 347.292 41.067 347.143 40.843C346.993 40.5817 346.919 40.3203 346.919 40.059C346.956 39.499 347.087 39.2003 347.311 39.163C347.535 39.0883 347.833 39.051 348.207 39.051C349.252 39.051 349.961 38.883 350.335 38.547C350.745 38.1737 350.969 37.6883 351.007 37.091C351.044 36.4937 351.063 35.8777 351.063 35.243V21.411C351.063 20.739 351.044 20.123 351.007 19.563C350.969 18.9657 350.745 18.499 350.335 18.163C349.961 17.7897 349.252 17.603 348.207 17.603C347.833 17.603 347.535 17.5843 347.311 17.547C347.087 17.4723 346.956 17.155 346.919 16.595C346.919 16.2963 346.993 16.035 347.143 15.811C347.292 15.587 347.516 15.475 347.815 15.475C348.897 15.5123 349.887 15.5497 350.783 15.587C351.679 15.6243 352.631 15.643 353.639 15.643C354.609 15.643 355.487 15.6243 356.271 15.587C357.055 15.5497 357.969 15.5123 359.015 15.475C359.313 15.475 359.537 15.587 359.687 15.811C359.836 16.035 359.911 16.2963 359.911 16.595C359.873 17.155 359.724 17.4723 359.463 17.547C359.239 17.5843 358.977 17.603 358.679 17.603C357.783 17.5657 357.167 17.6963 356.831 17.995C356.495 18.2937 356.308 18.7417 356.271 19.339C356.271 19.899 356.252 20.5897 356.215 21.411V34.571L366.855 20.067C368.348 18.2003 369.617 17.0057 370.663 16.483C371.745 15.9603 372.697 15.6617 373.519 15.587L375.983 15.475C376.281 15.475 376.505 15.587 376.655 15.811C376.804 16.035 376.879 16.2963 376.879 16.595C376.841 17.155 376.692 17.4723 376.431 17.547C376.207 17.5843 375.927 17.603 375.591 17.603C374.545 17.603 373.817 17.7897 373.407 18.163C373.033 18.499 372.809 18.9657 372.735 19.563C372.697 20.123 372.679 20.739 372.679 21.411V35.243C372.679 35.8777 372.697 36.4937 372.735 37.091C372.809 37.6883 373.033 38.1737 373.407 38.547C373.817 38.883 374.545 39.051 375.591 39.051C375.927 39.051 376.207 39.0883 376.431 39.163C376.692 39.2003 376.841 39.499 376.879 40.059C376.879 40.3203 376.804 40.5817 376.655 40.843C376.505 41.067 376.281 41.179 375.983 41.179C374.9 41.1043 373.911 41.0483 373.015 41.011C372.119 41.011 371.167 41.011 370.159 41.011C369.188 41.011 368.311 41.011 367.527 41.011C366.743 41.0483 365.809 41.1043 364.727 41.179C364.465 41.179 364.26 41.067 364.111 40.843C363.961 40.5817 363.887 40.3203 363.887 40.059C363.924 39.499 364.055 39.2003 364.279 39.163C364.503 39.0883 364.783 39.051 365.119 39.051C366.015 39.0883 366.631 38.9577 366.967 38.659C367.303 38.3603 367.489 37.931 367.527 37.371C367.564 36.7737 367.583 36.0643 367.583 35.243V22.811L356.887 37.203C355.804 38.5843 354.684 39.555 353.527 40.115C352.407 40.675 351.417 40.9923 350.559 41.067C350.111 41.1043 349.663 41.123 349.215 41.123C348.767 41.1603 348.3 41.179 347.815 41.179Z" fill="#333333"/>
<path d="M384.238 41.403C382.745 41.403 381.55 41.0297 380.654 40.283C379.758 39.499 379.31 38.771 379.31 38.099C379.31 37.5017 379.609 37.203 380.206 37.203C380.505 37.203 380.748 37.371 380.934 37.707C381.158 38.0057 381.401 38.323 381.662 38.659C381.961 38.995 382.372 39.163 382.894 39.163C383.604 39.163 384.22 38.883 384.742 38.323C385.265 37.763 385.788 37.035 386.31 36.139C386.833 35.243 387.393 34.3283 387.99 33.395C388.737 32.2377 389.54 31.323 390.398 30.651C391.257 29.979 392.34 29.475 393.646 29.139V29.027C392.601 28.9897 391.5 28.803 390.342 28.467C389.222 28.0937 388.233 27.5523 387.374 26.843C385.993 25.6857 385.302 24.211 385.302 22.419C385.302 20.067 386.273 18.3497 388.214 17.267C390.156 16.1843 392.601 15.643 395.55 15.643H403.446C404.417 15.643 405.35 15.6243 406.246 15.587C407.18 15.5497 408.188 15.5123 409.27 15.475C409.569 15.475 409.774 15.587 409.886 15.811C410.036 16.035 410.11 16.2963 410.11 16.595C410.073 17.155 409.942 17.4723 409.718 17.547C409.494 17.5843 409.196 17.603 408.822 17.603C407.777 17.603 407.068 17.7897 406.694 18.163C406.321 18.499 406.097 18.9657 406.022 19.563C405.985 20.123 405.966 20.739 405.966 21.411V35.243C405.966 35.8777 405.985 36.4937 406.022 37.091C406.097 37.6883 406.321 38.1737 406.694 38.547C407.068 38.883 407.777 39.051 408.822 39.051C409.196 39.051 409.494 39.0883 409.718 39.163C409.942 39.2003 410.073 39.499 410.11 40.059C410.11 40.3203 410.036 40.5817 409.886 40.843C409.774 41.067 409.569 41.179 409.27 41.179C408.188 41.1043 407.18 41.0483 406.246 41.011C405.35 41.011 404.417 41.011 403.446 41.011C402.476 41.011 401.598 41.011 400.814 41.011C400.03 41.0483 399.097 41.1043 398.014 41.179C397.716 41.179 397.492 41.067 397.342 40.843C397.193 40.5817 397.118 40.3203 397.118 40.059C397.156 39.499 397.286 39.2003 397.51 39.163C397.772 39.0883 398.052 39.051 398.35 39.051C399.284 39.0883 399.9 38.9577 400.198 38.659C400.534 38.3603 400.721 37.931 400.758 37.371C400.796 36.7737 400.814 36.0643 400.814 35.243V29.531H399.526C398.332 29.531 397.324 29.7923 396.502 30.315C395.681 30.8377 394.972 31.5283 394.374 32.387C393.777 33.2083 393.198 34.0857 392.638 35.019C392.041 36.0643 391.388 37.091 390.678 38.099C390.006 39.0697 389.166 39.8723 388.158 40.507C387.15 41.1043 385.844 41.403 384.238 41.403ZM398.35 27.963H400.814V19.395C400.814 18.5363 400.46 18.0137 399.75 17.827C399.041 17.6403 398.089 17.547 396.894 17.547C395.065 17.547 393.59 17.995 392.47 18.891C391.388 19.7497 390.846 21.0563 390.846 22.811C390.846 23.7443 391.052 24.547 391.462 25.219C391.873 25.891 392.414 26.451 393.086 26.899C393.758 27.2723 394.524 27.5523 395.382 27.739C396.278 27.8883 397.268 27.963 398.35 27.963Z" fill="#333333"/>
<path d="M418.274 41.683C417.266 41.683 416.426 41.3657 415.754 40.731C415.082 40.059 414.746 39.2003 414.746 38.155C414.746 37.1843 415.082 36.363 415.754 35.691C416.426 35.019 417.284 34.683 418.33 34.683C419.338 34.683 420.178 35.019 420.85 35.691C421.559 36.363 421.914 37.1843 421.914 38.155C421.914 39.2003 421.559 40.059 420.85 40.731C420.178 41.3657 419.319 41.683 418.274 41.683Z" fill="#333333"/>
<path d="M426.274 52.659C426.013 52.659 425.789 52.5283 425.602 52.267C425.453 52.043 425.378 51.8003 425.378 51.539C425.416 50.979 425.546 50.6617 425.77 50.587C426.032 50.5497 426.33 50.531 426.666 50.531C427.674 50.531 428.365 50.3443 428.738 49.971C429.149 49.635 429.392 49.1683 429.466 48.571C429.541 47.9737 429.578 47.3577 429.578 46.723V22.419C429.578 21.747 429.541 21.131 429.466 20.571C429.429 19.9737 429.224 19.507 428.85 19.171C428.477 18.7977 427.768 18.611 426.722 18.611C426.386 18.611 426.069 18.5737 425.77 18.499C425.509 18.387 425.378 18.051 425.378 17.491C425.378 16.931 425.677 16.595 426.274 16.483C427.992 16.2217 429.298 15.9603 430.194 15.699C431.128 15.4377 431.818 15.2137 432.266 15.027C432.752 14.8403 433.181 14.7283 433.554 14.691C433.853 14.6537 434.096 14.7097 434.282 14.859C434.506 15.0083 434.618 15.307 434.618 15.755V18.443H434.786C435.832 17.4723 437.082 16.651 438.538 15.979C439.994 15.307 441.394 14.971 442.738 14.971C445.016 14.971 447.032 15.531 448.786 16.651C450.541 17.771 451.922 19.339 452.93 21.355C453.938 23.3337 454.442 25.6483 454.442 28.299C454.442 30.987 453.826 33.339 452.594 35.355C451.362 37.371 449.776 38.939 447.834 40.059C445.893 41.1417 443.821 41.683 441.618 41.683C439.938 41.683 438.576 41.4963 437.53 41.123C436.522 40.787 435.645 40.395 434.898 39.947H434.674V46.723C434.674 47.3577 434.712 47.9737 434.786 48.571C434.861 49.1683 435.104 49.635 435.514 49.971C435.925 50.3443 436.616 50.531 437.586 50.531C437.922 50.531 438.202 50.5497 438.426 50.587C438.688 50.6617 438.837 50.979 438.874 51.539C438.874 51.8003 438.8 52.043 438.65 52.267C438.501 52.5283 438.277 52.659 437.978 52.659C436.896 52.5843 435.888 52.5283 434.954 52.491C434.058 52.491 433.106 52.491 432.098 52.491C431.09 52.491 430.138 52.491 429.242 52.491C428.346 52.5283 427.357 52.5843 426.274 52.659ZM441.17 39.779C442.626 39.779 443.84 39.4243 444.81 38.715C445.781 37.9683 446.546 37.035 447.106 35.915C447.704 34.7577 448.114 33.5257 448.338 32.219C448.6 30.875 448.73 29.6243 448.73 28.467C448.73 26.7123 448.45 25.0323 447.89 23.427C447.368 21.7843 446.509 20.4403 445.314 19.395C444.157 18.3123 442.626 17.771 440.722 17.771C439.304 17.771 438.128 18.0697 437.194 18.667C436.261 19.227 435.421 19.899 434.674 20.683V35.691C435.085 36.6617 435.832 37.595 436.914 38.491C438.034 39.3497 439.453 39.779 441.17 39.779Z" fill="#333333"/>
<path d="M461.294 53.219C460.212 53.219 459.185 52.9763 458.214 52.491C457.281 52.0057 456.534 51.3523 455.974 50.531C455.414 49.747 455.134 48.8883 455.134 47.955C455.172 46.947 455.396 46.163 455.806 45.603C456.18 45.0803 456.609 44.707 457.094 44.483C457.58 44.2963 457.99 44.1843 458.326 44.147C458.662 44.1097 458.793 44.091 458.718 44.091C459.428 44.091 459.969 44.2217 460.342 44.483C460.716 44.7817 460.902 45.0243 460.902 45.211C460.902 45.2857 460.753 45.4537 460.454 45.715C460.193 46.0137 460.044 46.5177 460.006 47.227C459.969 47.899 460.174 48.5523 460.622 49.187C461.07 49.8217 461.761 50.139 462.694 50.139C463.74 50.139 464.692 49.747 465.55 48.963C466.409 48.2163 467.174 47.283 467.846 46.163C468.518 45.043 469.097 43.9603 469.582 42.915C469.844 42.0937 469.825 41.235 469.526 40.339C468.63 38.323 467.753 36.1763 466.894 33.899C466.036 31.6217 465.196 29.419 464.374 27.291C463.59 25.163 462.806 23.2963 462.022 21.691C461.425 20.3097 460.846 19.339 460.286 18.779C459.726 18.1817 458.886 17.8083 457.766 17.659C457.281 17.5843 456.945 17.5097 456.758 17.435C456.609 17.3603 456.516 17.0803 456.478 16.595C456.441 15.9603 456.609 15.6243 456.982 15.587C457.393 15.5123 457.878 15.4563 458.438 15.419C460.753 15.307 462.564 15.643 463.87 16.427C465.177 17.211 466.241 18.5363 467.062 20.403C467.585 21.5603 468.164 22.9977 468.798 24.715C469.433 26.4323 470.105 28.1683 470.814 29.923C471.524 31.6777 472.214 33.2643 472.886 34.683H473.054L478.542 20.011C478.916 18.9283 478.934 18.2563 478.598 17.995C478.262 17.7337 477.534 17.603 476.414 17.603C476.078 17.603 475.798 17.5843 475.574 17.547C475.35 17.4723 475.22 17.155 475.182 16.595C475.182 16.371 475.238 16.1283 475.35 15.867C475.5 15.6057 475.705 15.475 475.966 15.475C477.049 15.5123 477.982 15.5497 478.766 15.587C479.55 15.6243 480.428 15.643 481.398 15.643C482.07 15.643 482.612 15.643 483.022 15.643C483.433 15.6057 483.862 15.587 484.31 15.587C484.758 15.5497 485.337 15.5123 486.046 15.475C486.345 15.475 486.55 15.6057 486.662 15.867C486.812 16.1283 486.886 16.371 486.886 16.595C486.849 17.155 486.7 17.4723 486.438 17.547C486.214 17.5843 485.953 17.603 485.654 17.603C484.422 17.603 483.433 17.827 482.686 18.275C481.977 18.723 481.361 19.6003 480.838 20.907C480.838 20.907 480.633 21.3923 480.222 22.363C479.849 23.3337 479.345 24.603 478.71 26.171C478.076 27.739 477.404 29.4003 476.694 31.155C475.985 32.8723 475.313 34.515 474.678 36.083C474.044 37.651 473.521 38.939 473.11 39.947C472.7 40.955 472.476 41.4963 472.438 41.571C471.953 42.7283 471.356 43.979 470.646 45.323C469.974 46.7043 469.172 47.9737 468.238 49.131C467.342 50.3257 466.316 51.2963 465.158 52.043C464.001 52.827 462.713 53.219 461.294 53.219Z" fill="#333333"/>
<path d="M109.662 68.235V75.363H107.79V59.067H110.766C111.758 59.067 112.558 59.155 113.166 59.331C113.774 59.491 114.342 59.795 114.87 60.243C115.318 60.627 115.694 61.131 115.998 61.755C116.126 62.075 116.222 62.379 116.286 62.667C116.35 62.955 116.382 63.283 116.382 63.651C116.382 64.563 116.174 65.371 115.758 66.075C115.358 66.763 114.758 67.299 113.958 67.683C113.174 68.051 112.262 68.235 111.222 68.235H109.662ZM109.662 66.579H111.126C111.83 66.579 112.454 66.467 112.998 66.243C113.526 65.987 113.918 65.643 114.174 65.211C114.446 64.763 114.582 64.227 114.582 63.603C114.582 61.715 113.382 60.771 110.982 60.771H109.662V66.579Z" fill="#333333" fill-opacity="0.4"/>
<path d="M118.92 70.347C118.92 69.387 119.152 68.491 119.616 67.659C120.096 66.827 120.736 66.171 121.536 65.691C122.352 65.211 123.248 64.971 124.224 64.971C124.992 64.971 125.696 65.107 126.336 65.379C126.992 65.635 127.56 66.011 128.04 66.507C128.552 67.003 128.936 67.587 129.192 68.259C129.464 68.915 129.6 69.611 129.6 70.347C129.6 70.843 129.544 71.315 129.432 71.763C129.32 72.211 129.136 72.635 128.88 73.035C128.432 73.835 127.784 74.475 126.936 74.955C126.104 75.419 125.2 75.651 124.224 75.651C123.264 75.651 122.376 75.419 121.56 74.955C120.744 74.491 120.096 73.843 119.616 73.011C119.152 72.179 118.92 71.291 118.92 70.347ZM120.672 70.347C120.672 71.403 121.016 72.283 121.704 72.987C122.392 73.691 123.232 74.043 124.224 74.043C124.896 74.043 125.512 73.891 126.072 73.587C126.648 73.267 127.088 72.835 127.392 72.291C127.696 71.731 127.848 71.083 127.848 70.347C127.848 69.595 127.688 68.939 127.368 68.379C127.064 67.803 126.632 67.363 126.072 67.059C125.528 66.739 124.912 66.579 124.224 66.579C123.568 66.579 122.968 66.739 122.424 67.059C121.88 67.379 121.448 67.827 121.128 68.403C120.824 68.979 120.672 69.627 120.672 70.347Z" fill="#333333" fill-opacity="0.4"/>
<path d="M140.472 65.955V68.235C139.96 67.643 139.456 67.219 138.96 66.963C138.464 66.707 137.896 66.579 137.256 66.579C136.632 66.579 136.04 66.739 135.48 67.059C135.208 67.219 134.968 67.403 134.76 67.611C134.552 67.819 134.36 68.067 134.184 68.355C133.864 68.915 133.704 69.515 133.704 70.155C133.704 71.275 134.032 72.203 134.688 72.939C135.36 73.675 136.2 74.043 137.208 74.043C137.848 74.043 138.424 73.915 138.936 73.659C139.448 73.387 139.976 72.931 140.52 72.291V74.571C139.88 75.003 139.336 75.291 138.888 75.435C138.44 75.579 137.88 75.651 137.208 75.651C136.232 75.651 135.336 75.411 134.52 74.931C133.704 74.435 133.072 73.771 132.624 72.939C132.176 72.091 131.952 71.163 131.952 70.155C131.952 69.243 132.184 68.395 132.648 67.611C133.128 66.811 133.792 66.171 134.64 65.691C135.488 65.211 136.392 64.971 137.352 64.971C137.96 64.971 138.496 65.051 138.96 65.211C139.456 65.355 139.96 65.603 140.472 65.955Z" fill="#333333" fill-opacity="0.4"/>
<path d="M151.206 65.955V68.235C150.694 67.643 150.19 67.219 149.694 66.963C149.198 66.707 148.63 66.579 147.99 66.579C147.366 66.579 146.774 66.739 146.214 67.059C145.942 67.219 145.702 67.403 145.494 67.611C145.286 67.819 145.094 68.067 144.918 68.355C144.598 68.915 144.438 69.515 144.438 70.155C144.438 71.275 144.766 72.203 145.422 72.939C146.094 73.675 146.934 74.043 147.942 74.043C148.582 74.043 149.158 73.915 149.67 73.659C150.182 73.387 150.71 72.931 151.254 72.291V74.571C150.614 75.003 150.07 75.291 149.622 75.435C149.174 75.579 148.614 75.651 147.942 75.651C146.966 75.651 146.07 75.411 145.254 74.931C144.438 74.435 143.806 73.771 143.358 72.939C142.91 72.091 142.686 71.163 142.686 70.155C142.686 69.243 142.918 68.395 143.382 67.611C143.862 66.811 144.526 66.171 145.374 65.691C146.222 65.211 147.126 64.971 148.086 64.971C148.694 64.971 149.23 65.051 149.694 65.211C150.19 65.355 150.694 65.603 151.206 65.955Z" fill="#333333" fill-opacity="0.4"/>
<path d="M155.796 65.211V71.595L162.204 64.587V75.363H160.476V68.931L154.044 75.891V65.211H155.796Z" fill="#333333" fill-opacity="0.4"/>
<path d="M167.257 65.211V71.595L173.665 64.587V75.363H171.937V68.931L165.505 75.891V65.211H167.257ZM167.809 63.075H168.865C168.865 63.347 168.969 63.587 169.177 63.795C169.401 63.987 169.641 64.083 169.897 64.083C170.185 64.083 170.425 63.987 170.617 63.795C170.825 63.603 170.929 63.363 170.929 63.075H171.985C171.985 63.667 171.777 64.163 171.361 64.563C170.945 64.963 170.457 65.163 169.897 65.163C169.353 65.163 168.865 64.963 168.433 64.563C168.017 64.147 167.809 63.651 167.809 63.075Z" fill="#333333" fill-opacity="0.4"/>
<path d="M184.862 65.955V68.235C184.35 67.643 183.846 67.219 183.35 66.963C182.854 66.707 182.286 66.579 181.646 66.579C181.022 66.579 180.43 66.739 179.87 67.059C179.598 67.219 179.358 67.403 179.15 67.611C178.942 67.819 178.75 68.067 178.574 68.355C178.254 68.915 178.094 69.515 178.094 70.155C178.094 71.275 178.422 72.203 179.078 72.939C179.75 73.675 180.59 74.043 181.598 74.043C182.238 74.043 182.814 73.915 183.326 73.659C183.838 73.387 184.366 72.931 184.91 72.291V74.571C184.27 75.003 183.726 75.291 183.278 75.435C182.83 75.579 182.27 75.651 181.598 75.651C180.622 75.651 179.726 75.411 178.91 74.931C178.094 74.435 177.462 73.771 177.014 72.939C176.566 72.091 176.342 71.163 176.342 70.155C176.342 69.243 176.574 68.395 177.038 67.611C177.518 66.811 178.182 66.171 179.03 65.691C179.878 65.211 180.782 64.971 181.742 64.971C182.35 64.971 182.886 65.051 183.35 65.211C183.846 65.355 184.35 65.603 184.862 65.955Z" fill="#333333" fill-opacity="0.4"/>
<path d="M189.453 65.211V69.699L193.125 65.211H195.453L191.565 69.747L196.245 75.363H193.989L190.437 70.971L189.453 72.099V75.363H187.701V65.211H189.453Z" fill="#333333" fill-opacity="0.4"/>
<path d="M200.187 65.211V71.595L206.595 64.587V75.363H204.867V68.931L198.435 75.891V65.211H200.187Z" fill="#333333" fill-opacity="0.4"/>
<path d="M211.648 65.211V71.595L218.056 64.587V75.363H216.328V68.931L209.896 75.891V65.211H211.648ZM212.2 63.075H213.256C213.256 63.347 213.36 63.587 213.568 63.795C213.792 63.987 214.032 64.083 214.288 64.083C214.576 64.083 214.816 63.987 215.008 63.795C215.216 63.603 215.32 63.363 215.32 63.075H216.376C216.376 63.667 216.168 64.163 215.752 64.563C215.336 64.963 214.848 65.163 214.288 65.163C213.744 65.163 213.256 64.963 212.824 64.563C212.408 64.147 212.2 63.651 212.2 63.075Z" fill="#333333" fill-opacity="0.4"/>
<path d="M229.976 65.211V71.595L236.384 64.587V75.363H234.656V68.931L228.224 75.891V65.211H229.976Z" fill="#333333" fill-opacity="0.4"/>
<path d="M241.437 70.635V75.363H239.685V65.211H241.437V69.075H246.069V65.211H247.845V75.363H246.069V70.635H241.437Z" fill="#333333" fill-opacity="0.4"/>
<path d="M257.986 57.555H259.738V66.531C260.218 65.939 260.658 65.531 261.058 65.307C261.474 65.083 262.058 64.971 262.81 64.971C263.754 64.971 264.538 65.203 265.162 65.667C265.818 66.115 266.314 66.755 266.65 67.587C266.986 68.419 267.154 69.371 267.154 70.443C267.154 71.435 266.986 72.331 266.65 73.131C266.314 73.915 265.81 74.539 265.138 75.003C264.482 75.467 263.706 75.699 262.81 75.699C262.33 75.699 261.93 75.643 261.61 75.531C261.29 75.435 260.986 75.283 260.698 75.075C260.41 74.851 260.09 74.523 259.738 74.091V81.123H257.986V74.091C257.49 74.683 257.026 75.107 256.594 75.363C256.146 75.587 255.586 75.699 254.914 75.699C253.986 75.699 253.202 75.467 252.562 75.003C251.938 74.539 251.45 73.915 251.098 73.131C250.746 72.331 250.57 71.435 250.57 70.443C250.57 69.371 250.738 68.419 251.074 67.587C251.41 66.755 251.906 66.115 252.562 65.667C253.218 65.203 254.002 64.971 254.914 64.971C255.65 64.971 256.218 65.083 256.618 65.307C257.034 65.499 257.49 65.907 257.986 66.531V57.555ZM265.354 70.443C265.354 69.275 265.114 68.339 264.634 67.635C264.154 66.931 263.434 66.579 262.474 66.579C260.618 66.579 259.69 67.851 259.69 70.395C259.69 71.499 259.922 72.395 260.386 73.083C260.85 73.755 261.562 74.091 262.522 74.091C263.098 74.091 263.602 73.939 264.034 73.635C264.466 73.315 264.794 72.875 265.018 72.315C265.242 71.739 265.354 71.115 265.354 70.443ZM252.37 70.443C252.37 71.115 252.482 71.739 252.706 72.315C252.93 72.875 253.25 73.307 253.666 73.611C253.89 73.771 254.122 73.891 254.362 73.971C254.602 74.051 254.882 74.091 255.202 74.091C256.146 74.091 256.85 73.755 257.314 73.083C257.794 72.395 258.034 71.499 258.034 70.395C258.034 67.851 257.106 66.579 255.25 66.579C254.306 66.579 253.586 66.931 253.09 67.635C252.61 68.323 252.37 69.259 252.37 70.443Z" fill="#333333" fill-opacity="0.4"/>
<path d="M269.413 70.347C269.413 69.387 269.645 68.491 270.109 67.659C270.589 66.827 271.229 66.171 272.029 65.691C272.845 65.211 273.741 64.971 274.717 64.971C275.485 64.971 276.189 65.107 276.829 65.379C277.485 65.635 278.053 66.011 278.533 66.507C279.045 67.003 279.429 67.587 279.685 68.259C279.957 68.915 280.093 69.611 280.093 70.347C280.093 70.843 280.037 71.315 279.925 71.763C279.813 72.211 279.629 72.635 279.373 73.035C278.925 73.835 278.277 74.475 277.429 74.955C276.597 75.419 275.693 75.651 274.717 75.651C273.757 75.651 272.869 75.419 272.053 74.955C271.237 74.491 270.589 73.843 270.109 73.011C269.645 72.179 269.413 71.291 269.413 70.347ZM271.165 70.347C271.165 71.403 271.509 72.283 272.197 72.987C272.885 73.691 273.725 74.043 274.717 74.043C275.389 74.043 276.005 73.891 276.565 73.587C277.141 73.267 277.581 72.835 277.885 72.291C278.189 71.731 278.341 71.083 278.341 70.347C278.341 69.595 278.181 68.939 277.861 68.379C277.557 67.803 277.125 67.363 276.565 67.059C276.021 66.739 275.405 66.579 274.717 66.579C274.061 66.579 273.461 66.739 272.917 67.059C272.373 67.379 271.941 67.827 271.621 68.403C271.317 68.979 271.165 69.627 271.165 70.347Z" fill="#333333" fill-opacity="0.4"/>
<path d="M284.82 81.075H283.068V65.211H284.82V66.627C285.332 66.035 285.852 65.611 286.38 65.355C286.924 65.099 287.58 64.971 288.348 64.971C289.244 64.971 290.084 65.203 290.868 65.667C291.588 66.147 292.156 66.803 292.572 67.635C293.004 68.467 293.22 69.403 293.22 70.443C293.22 71.403 293.012 72.283 292.596 73.083C292.18 73.867 291.596 74.491 290.844 74.955C290.092 75.419 289.26 75.651 288.348 75.651C286.956 75.651 285.78 75.083 284.82 73.947V81.075ZM291.42 70.395C291.42 69.675 291.284 69.019 291.012 68.427C290.74 67.835 290.34 67.371 289.812 67.035C289.3 66.699 288.724 66.531 288.084 66.531C287.092 66.531 286.284 66.891 285.66 67.611C285.036 68.331 284.724 69.259 284.724 70.395C284.724 71.483 285.044 72.363 285.684 73.035C286.324 73.707 287.14 74.043 288.132 74.043C288.74 74.043 289.292 73.891 289.788 73.587C290.3 73.267 290.7 72.827 290.988 72.267C291.276 71.691 291.42 71.067 291.42 70.395Z" fill="#333333" fill-opacity="0.4"/>
<path d="M301.331 72.483L306.203 64.395L307.235 75.363H305.459L304.979 69.411L301.379 76.203L297.707 69.411L297.227 75.363H295.475L296.483 64.395L301.331 72.483Z" fill="#333333" fill-opacity="0.4"/>
<path d="M317.842 65.211H319.594V75.363H317.842V73.947C316.93 75.083 315.762 75.651 314.338 75.651C313.426 75.651 312.594 75.411 311.842 74.931C311.106 74.451 310.53 73.803 310.114 72.987C309.714 72.155 309.514 71.211 309.514 70.155C309.514 69.179 309.722 68.299 310.138 67.515C310.554 66.715 311.13 66.091 311.866 65.643C312.618 65.195 313.458 64.971 314.386 64.971C315.762 64.971 316.914 65.539 317.842 66.675V65.211ZM311.266 70.203C311.266 70.907 311.41 71.563 311.698 72.171C311.986 72.779 312.378 73.243 312.874 73.563C313.386 73.883 313.954 74.043 314.578 74.043C315.602 74.043 316.426 73.691 317.05 72.987C317.674 72.267 317.986 71.339 317.986 70.203C317.986 69.499 317.842 68.867 317.554 68.307C317.282 67.747 316.882 67.307 316.354 66.987C315.794 66.683 315.202 66.531 314.578 66.531C313.986 66.531 313.434 66.691 312.922 67.011C312.41 67.363 312.002 67.819 311.698 68.379C311.41 68.923 311.266 69.531 311.266 70.203Z" fill="#333333" fill-opacity="0.4"/>
<path d="M330.633 75.363H323.169V65.211H324.921V73.803H328.929V65.211H330.681V73.803H332.433V78.627H330.633V75.363Z" fill="#333333" fill-opacity="0.4"/>
<path d="M336.382 65.211V71.595L342.79 64.587V75.363H341.062V68.931L334.63 75.891V65.211H336.382Z" fill="#333333" fill-opacity="0.4"/>
<path d="M345.467 70.347C345.467 69.387 345.699 68.491 346.163 67.659C346.643 66.827 347.283 66.171 348.083 65.691C348.899 65.211 349.795 64.971 350.771 64.971C351.539 64.971 352.243 65.107 352.883 65.379C353.539 65.635 354.107 66.011 354.587 66.507C355.099 67.003 355.483 67.587 355.739 68.259C356.011 68.915 356.147 69.611 356.147 70.347C356.147 70.843 356.091 71.315 355.979 71.763C355.867 72.211 355.683 72.635 355.427 73.035C354.979 73.835 354.331 74.475 353.483 74.955C352.651 75.419 351.747 75.651 350.771 75.651C349.811 75.651 348.923 75.419 348.107 74.955C347.291 74.491 346.643 73.843 346.163 73.011C345.699 72.179 345.467 71.291 345.467 70.347ZM347.219 70.347C347.219 71.403 347.563 72.283 348.251 72.987C348.939 73.691 349.779 74.043 350.771 74.043C351.443 74.043 352.059 73.891 352.619 73.587C353.195 73.267 353.635 72.835 353.939 72.291C354.243 71.731 354.395 71.083 354.395 70.347C354.395 69.595 354.235 68.939 353.915 68.379C353.611 67.803 353.179 67.363 352.619 67.059C352.075 66.739 351.459 66.579 350.771 66.579C350.115 66.579 349.515 66.739 348.971 67.059C348.427 67.379 347.995 67.827 347.675 68.403C347.371 68.979 347.219 69.627 347.219 70.347Z" fill="#333333" fill-opacity="0.4"/>
<path d="M360.874 70.635V75.363H359.122V65.211H360.874V69.075H365.506V65.211H367.282V75.363H365.506V70.635H360.874Z" fill="#333333" fill-opacity="0.4"/>
<path d="M372.335 70.635V75.363H370.583V65.211H372.335V69.075H376.967V65.211H378.743V75.363H376.967V70.635H372.335Z" fill="#333333" fill-opacity="0.4"/>
<path d="M382.092 75.363V65.211H383.844V69.411H385.02C386.492 69.411 387.54 69.667 388.164 70.179C388.804 70.675 389.124 71.443 389.124 72.483C389.124 73.379 388.74 74.091 387.972 74.619C387.172 75.115 386.172 75.363 384.972 75.363H382.092ZM383.844 73.803H384.972C385.772 73.803 386.388 73.731 386.82 73.587C387.22 73.427 387.42 73.059 387.42 72.483C387.42 71.779 387.22 71.347 386.82 71.187C386.42 71.011 385.804 70.923 384.972 70.923H383.844V73.803ZM392.292 65.211V75.363H390.54V65.211H392.292Z" fill="#333333" fill-opacity="0.4"/>
<path d="M397.554 65.211V71.595L403.962 64.587V75.363H402.234V68.931L395.802 75.891V65.211H397.554ZM398.106 63.075H399.162C399.162 63.347 399.266 63.587 399.474 63.795C399.698 63.987 399.938 64.083 400.194 64.083C400.482 64.083 400.722 63.987 400.914 63.795C401.122 63.603 401.226 63.363 401.226 63.075H402.282C402.282 63.667 402.074 64.163 401.658 64.563C401.242 64.963 400.754 65.163 400.194 65.163C399.65 65.163 399.162 64.963 398.73 64.563C398.314 64.147 398.106 63.651 398.106 63.075Z" fill="#333333" fill-opacity="0.4"/>
<path d="M415.882 66.771V75.363H414.13V65.211H422.29V75.363H420.514V66.771H415.882Z" fill="#333333" fill-opacity="0.4"/>
<path d="M424.967 70.347C424.967 69.387 425.199 68.491 425.663 67.659C426.143 66.827 426.783 66.171 427.583 65.691C428.399 65.211 429.295 64.971 430.271 64.971C431.039 64.971 431.743 65.107 432.383 65.379C433.039 65.635 433.607 66.011 434.087 66.507C434.599 67.003 434.983 67.587 435.239 68.259C435.511 68.915 435.647 69.611 435.647 70.347C435.647 70.843 435.591 71.315 435.479 71.763C435.367 72.211 435.183 72.635 434.927 73.035C434.479 73.835 433.831 74.475 432.983 74.955C432.151 75.419 431.247 75.651 430.271 75.651C429.311 75.651 428.423 75.419 427.607 74.955C426.791 74.491 426.143 73.843 425.663 73.011C425.199 72.179 424.967 71.291 424.967 70.347ZM426.719 70.347C426.719 71.403 427.063 72.283 427.751 72.987C428.439 73.691 429.279 74.043 430.271 74.043C430.943 74.043 431.559 73.891 432.119 73.587C432.695 73.267 433.135 72.835 433.439 72.291C433.743 71.731 433.895 71.083 433.895 70.347C433.895 69.595 433.735 68.939 433.415 68.379C433.111 67.803 432.679 67.363 432.119 67.059C431.575 66.739 430.959 66.579 430.271 66.579C429.615 66.579 429.015 66.739 428.471 67.059C427.927 67.379 427.495 67.827 427.175 68.403C426.871 68.979 426.719 69.627 426.719 70.347Z" fill="#333333" fill-opacity="0.4"/>
<path d="M440.374 81.075H438.622V65.211H440.374V66.627C440.886 66.035 441.406 65.611 441.934 65.355C442.478 65.099 443.134 64.971 443.902 64.971C444.798 64.971 445.638 65.203 446.422 65.667C447.142 66.147 447.71 66.803 448.126 67.635C448.558 68.467 448.774 69.403 448.774 70.443C448.774 71.403 448.566 72.283 448.15 73.083C447.734 73.867 447.15 74.491 446.398 74.955C445.646 75.419 444.814 75.651 443.902 75.651C442.51 75.651 441.334 75.083 440.374 73.947V81.075ZM446.974 70.395C446.974 69.675 446.838 69.019 446.566 68.427C446.294 67.835 445.894 67.371 445.366 67.035C444.854 66.699 444.279 66.531 443.638 66.531C442.646 66.531 441.838 66.891 441.214 67.611C440.59 68.331 440.278 69.259 440.278 70.395C440.278 71.483 440.598 72.363 441.238 73.035C441.878 73.707 442.694 74.043 443.686 74.043C444.294 74.043 444.846 73.891 445.342 73.587C445.854 73.267 446.254 72.827 446.542 72.267C446.83 71.691 446.974 71.067 446.974 70.395Z" fill="#333333" fill-opacity="0.4"/>
<path d="M454.726 66.723V75.363H452.974V66.723H450.334V65.211H457.414V66.723H454.726Z" fill="#333333" fill-opacity="0.4"/>
<path d="M467.256 65.211H469.008V75.363H467.256V73.947C466.344 75.083 465.176 75.651 463.752 75.651C462.84 75.651 462.008 75.411 461.256 74.931C460.52 74.451 459.944 73.803 459.528 72.987C459.128 72.155 458.928 71.211 458.928 70.155C458.928 69.179 459.136 68.299 459.552 67.515C459.968 66.715 460.544 66.091 461.28 65.643C462.032 65.195 462.872 64.971 463.8 64.971C465.176 64.971 466.328 65.539 467.256 66.675V65.211ZM460.68 70.203C460.68 70.907 460.824 71.563 461.112 72.171C461.4 72.779 461.792 73.243 462.288 73.563C462.8 73.883 463.368 74.043 463.992 74.043C465.016 74.043 465.84 73.691 466.464 72.987C467.088 72.267 467.4 71.339 467.4 70.203C467.4 69.499 467.256 68.867 466.968 68.307C466.696 67.747 466.296 67.307 465.768 66.987C465.208 66.683 464.616 66.531 463.992 66.531C463.4 66.531 462.848 66.691 462.336 67.011C461.824 67.363 461.416 67.819 461.112 68.379C460.824 68.923 460.68 69.531 460.68 70.203Z" fill="#333333" fill-opacity="0.4"/>
<path d="M477.959 66.771H474.431V70.491C474.431 73.051 473.943 74.675 472.967 75.363H470.783C472.047 74.483 472.679 72.843 472.679 70.443V65.211H479.759V75.363H477.959V66.771Z" fill="#333333" fill-opacity="0.4"/>
<defs>
<radialGradient id="paint0_radial_916_2635" cx="0" cy="0" r="1" gradientUnits="userSpaceOnUse" gradientTransform="translate(43.895 43.315) rotate(90) scale(43.315 43.895)">
<stop stop-color="#FFF500"/>
<stop offset="1" stop-color="#FCAB0E"/>
</radialGradient>
</defs>
</svg>
