<?xml version="1.0" standalone="no"?>
<!DOCTYPE svg PUBLIC "-//W3C//DTD SVG 20010904//EN"
 "http://www.w3.org/TR/2001/REC-SVG-20010904/DTD/svg10.dtd">
<svg version="1.0" xmlns="http://www.w3.org/2000/svg"
 width="700.000000pt" height="700.000000pt" viewBox="0 0 700.000000 700.000000"
 preserveAspectRatio="xMidYMid meet">
<metadata>
Created by potrace 1.14, written by Peter Selinger 2001-2017
</metadata>
<g transform="translate(0.000000,700.000000) scale(0.100000,-0.100000)"
fill="#000000" stroke="none">
<path d="M3505 6847 c-234 -103 -307 -142 -443 -234 -351 -238 -667 -599 -873
-998 -69 -134 -149 -326 -170 -408 -6 -26 -16 -50 -21 -53 -10 -7 -317 93
-438 143 -160 66 -343 166 -420 230 -8 7 -76 60 -150 117 -135 104 -135 104
-143 78 -55 -198 -116 -443 -132 -537 -20 -115 -27 -487 -11 -605 4 -30 10
-75 13 -100 3 -25 7 -54 9 -65 3 -11 7 -36 10 -55 50 -318 198 -697 382 -981
34 -53 62 -98 62 -101 0 -8 -202 -142 -315 -210 -227 -136 -357 -188 -642
-258 -117 -29 -213 -56 -213 -61 0 -7 30 -50 83 -119 7 -9 58 -76 114 -150
122 -163 217 -263 378 -400 177 -151 505 -338 760 -435 55 -20 109 -41 120
-45 25 -10 234 -65 300 -79 105 -22 225 -38 345 -46 22 -1 25 -6 24 -36 -2
-93 -19 -271 -39 -399 -2 -14 -7 -45 -10 -70 -11 -78 -62 -263 -93 -340 -16
-41 -60 -140 -97 -220 -98 -212 -96 -190 -17 -191 37 -1 96 -3 132 -4 105 -5
383 -6 405 -1 11 2 52 7 90 12 39 4 72 8 75 9 3 1 25 5 50 9 25 4 81 17 125
28 44 11 88 21 97 23 38 8 238 79 328 117 328 139 598 319 858 572 56 56 105
103 107 105 6 5 215 -197 325 -315 76 -81 180 -216 227 -294 21 -36 79 -145
128 -244 l89 -178 25 29 c15 16 49 56 77 89 28 32 75 86 104 119 174 201 299
407 405 670 49 120 99 276 111 342 2 12 9 34 14 48 5 14 8 25 5 25 -2 0 1 15
6 33 5 17 12 48 15 67 3 19 7 42 9 50 2 8 7 35 10 60 3 25 8 56 10 70 18 113
24 431 11 565 -7 69 -8 79 -21 161 l-6 41 48 7 c26 4 62 8 78 11 197 29 326
39 495 39 175 0 253 -11 555 -79 11 -3 34 -7 50 -11 17 -3 38 -8 48 -11 22 -6
21 -4 -19 202 -14 72 -28 144 -31 160 -38 237 -191 598 -354 832 -16 23 -29
46 -29 51 0 6 -3 12 -7 14 -5 2 -28 30 -52 63 -219 296 -503 553 -797 724
l-63 36 78 130 c215 362 320 487 604 719 86 71 157 130 157 132 0 11 -398 213
-495 252 -193 76 -423 132 -655 159 -83 10 -523 10 -615 0 -214 -23 -563 -111
-686 -173 l-27 -13 -55 147 c-76 199 -138 402 -153 498 -3 21 -8 42 -10 45
-12 21 -21 188 -23 437 -1 78 -4 142 -8 142 -5 0 -102 -42 -218 -93z m-225
-741 c0 -14 46 -179 57 -206 3 -8 7 -17 8 -20 1 -3 7 -25 15 -50 7 -25 17 -49
22 -54 4 -6 8 -18 8 -28 0 -10 4 -26 9 -36 18 -31 111 -280 111 -293 0 -8 -27
-36 -61 -64 -123 -101 -237 -240 -302 -370 -38 -75 -76 -183 -79 -227 -1 -16
-4 -28 -5 -28 -2 0 -36 26 -76 59 -113 91 -247 157 -398 196 -35 9 -68 20 -73
25 -14 14 76 258 134 365 57 103 78 138 124 210 103 157 255 331 405 462 85
74 101 84 101 59z m2005 -771 c61 -8 121 -17 135 -20 14 -3 40 -8 58 -11 18
-3 35 -10 38 -15 3 -5 -19 -41 -48 -81 -74 -101 -182 -270 -258 -403 -9 -16
-32 -56 -49 -87 -35 -62 -35 -62 -96 -48 -22 5 -62 12 -90 15 -27 4 -61 8 -75
11 -39 6 -201 6 -240 0 -19 -3 -53 -8 -74 -11 -61 -8 -145 -35 -212 -66 -34
-16 -63 -29 -65 -29 -2 0 -3 44 -3 97 1 89 -21 244 -42 292 -4 9 -8 23 -10 32
-2 9 -19 53 -39 99 -28 65 -33 85 -23 92 7 4 74 28 149 52 142 46 327 83 469
93 47 3 86 6 87 7 9 7 299 -7 388 -19z m-1516 -522 c23 -87 22 -179 -3 -217
-21 -33 -53 -46 -111 -46 -61 0 -80 28 -72 106 6 61 36 121 100 200 51 63 57
59 86 -43z m-2432 13 c136 -55 271 -103 443 -156 74 -23 137 -44 139 -46 2 -2
5 -38 7 -81 1 -43 6 -103 10 -133 4 -30 8 -65 9 -76 5 -56 55 -215 93 -289 30
-60 76 -130 110 -167 29 -32 25 -43 -20 -46 -103 -8 -302 -93 -431 -186 -43
-31 -82 -56 -87 -56 -21 0 -157 242 -223 395 -61 143 -115 334 -141 500 -3 17
-7 44 -10 60 -17 99 -27 325 -15 325 4 0 57 -20 116 -44z m1227 -384 c87 -41
142 -89 152 -134 20 -95 -68 -170 -142 -121 -49 32 -102 144 -118 251 -8 54 0
54 108 4z m767 -325 c91 -58 191 -86 326 -91 42 -1 67 1 161 19 38 7 94 26
135 47 l37 18 1 -47 c2 -128 46 -257 122 -360 69 -93 200 -202 263 -217 l27
-7 -65 -62 c-37 -34 -83 -88 -103 -120 -92 -146 -123 -349 -80 -523 5 -21 4
-21 -53 -8 -209 51 -467 -47 -625 -235 -15 -19 -29 -32 -31 -30 -2 2 -18 32
-35 65 -34 65 -99 140 -168 192 -94 73 -254 128 -385 133 -32 1 -58 4 -58 5 0
1 11 25 26 53 46 94 64 256 39 375 -21 100 -80 227 -137 291 l-28 33 66 16
c172 43 327 169 402 327 22 46 46 110 53 142 l12 57 21 -19 c12 -10 46 -35 77
-54z m1519 58 c19 -6 18 -9 -11 -53 -67 -99 -155 -172 -209 -172 -57 0 -129
76 -114 122 13 41 72 81 141 96 49 11 168 15 193 7z m616 -231 c274 -172 530
-437 706 -729 45 -75 108 -193 108 -203 0 -4 -21 -8 -47 -8 -69 -2 -235 -13
-275 -19 -106 -15 -422 -55 -423 -53 -1 2 -22 41 -48 88 -63 117 -132 212
-213 296 -84 85 -150 134 -240 176 -68 32 -68 32 -44 47 114 75 238 216 322
366 29 52 55 95 59 95 3 0 45 -25 95 -56z m-3172 -634 c29 -11 57 -60 63 -110
7 -58 -21 -75 -121 -75 -73 1 -89 5 -163 39 -46 21 -83 42 -83 47 0 7 72 53
120 76 62 30 140 40 184 23z m2512 -286 c42 -19 149 -122 176 -170 l16 -29
-41 -3 c-23 -2 -59 -4 -81 -6 -95 -8 -214 44 -217 94 -5 69 0 90 24 114 28 28
64 28 123 0z m-3129 -232 c183 -123 400 -196 576 -194 31 0 57 -2 57 -5 0 -3
-13 -28 -28 -56 -70 -129 -113 -311 -116 -487 -1 -47 -9 -60 -35 -55 -9 1 -50
6 -91 10 -41 4 -77 9 -80 10 -3 2 -26 6 -50 10 -197 28 -482 136 -726 274 -86
48 -281 188 -273 195 2 2 31 18 64 36 132 72 256 148 408 251 l161 108 35 -28
c20 -15 64 -46 98 -69z m1232 -440 c46 -23 55 -41 47 -88 -12 -63 -140 -167
-243 -199 -21 -6 -23 -3 -23 27 1 92 54 228 102 263 29 20 75 19 117 -3z
m1854 -50 c103 -11 231 -6 328 13 86 17 89 17 90 4 0 -8 2 -23 4 -34 25 -130
24 -436 -1 -609 -8 -49 -38 -192 -58 -271 -30 -120 -140 -405 -156 -405 -4 0
-29 27 -56 59 -49 59 -340 352 -421 424 -48 42 -51 52 -24 105 33 64 89 244
105 332 18 102 14 301 -7 376 l-14 51 65 -18 c36 -10 101 -22 145 -27z m-734
-68 c46 -58 52 -189 15 -297 l-16 -49 -47 46 c-71 69 -114 146 -115 205 -1 55
14 79 67 105 46 22 73 20 96 -10z m-628 -361 c38 -97 127 -222 231 -325 54
-54 103 -98 108 -98 6 0 10 -4 10 -8 0 -18 -223 -230 -269 -256 -9 -5 -18 -12
-21 -16 -12 -15 -143 -102 -230 -152 -170 -97 -343 -171 -527 -222 -117 -33
-135 -34 -124 -3 5 12 11 40 14 62 3 22 13 83 21 135 20 130 28 201 41 405 4
55 11 105 16 111 5 7 24 14 42 18 67 13 205 62 278 97 127 62 190 108 289 210
52 53 96 98 96 98 1 1 12 -25 25 -56z"/>
</g>
</svg>
